<?xml version="1.0" standalone="no"?>
<!DOCTYPE svg PUBLIC "-//W3C//DTD SVG 20010904//EN"
 "http://www.w3.org/TR/2001/REC-SVG-20010904/DTD/svg10.dtd">
<svg version="1.0" xmlns="http://www.w3.org/2000/svg"
 width="1024.000000pt" height="1024.000000pt" viewBox="0 0 1024.000000 1024.000000"
 preserveAspectRatio="xMidYMid meet">

<g transform="translate(0.000000,1024.000000) scale(0.100000,-0.100000)"
fill="#000000" stroke="none">
<path d="M0 5120 l0 -5120 5120 0 5120 0 0 5120 0 5120 -5120 0 -5120 0 0
-5120z m5520 3156 c269 -36 537 -125 870 -290 180 -89 220 -118 220 -162 0
-51 -97 -161 -200 -228 -65 -43 -90 -44 -152 -8 -26 15 -92 53 -148 86 -194
113 -307 150 -605 201 -142 24 -177 27 -315 22 -162 -5 -344 -32 -447 -66
-201 -66 -278 -97 -391 -156 -166 -87 -303 -185 -433 -313 -59 -57 -109 -100
-111 -95 -3 4 -4 3 -2 -3 1 -6 -31 -56 -72 -110 -90 -120 -214 -362 -267 -519
-79 -241 -103 -426 -87 -675 13 -190 29 -277 85 -446 138 -419 445 -803 821
-1025 194 -115 382 -188 624 -242 82 -18 128 -21 335 -21 238 -1 241 -1 365
31 326 83 442 132 669 281 198 130 341 278 505 520 122 180 208 387 251 602
19 95 39 136 69 144 12 3 76 6 144 6 123 0 124 0 153 -29 16 -16 29 -37 29
-46 0 -10 -11 -72 -25 -139 -51 -254 -145 -477 -294 -701 -66 -99 -115 -156
-288 -330 -218 -220 -334 -316 -496 -410 -97 -56 -245 -128 -287 -140 -42 -12
-19 2 48 28 34 14 96 46 138 71 41 25 79 46 84 46 6 0 10 4 10 9 0 5 10 13 23
17 56 17 152 95 337 274 l65 63 -66 -59 c-79 -72 -307 -235 -406 -292 -226
-128 -513 -222 -776 -253 -61 -7 -182 -9 -315 -6 -182 4 -238 9 -343 31 -133
27 -261 64 -341 98 -48 20 -57 31 -38 43 6 3 10 -2 10 -11 0 -10 3 -15 6 -11
4 3 4 14 0 23 -6 16 -8 16 -25 0 -17 -16 -25 -14 -142 39 -125 56 -273 130
-296 148 -19 14 -16 27 7 27 11 0 20 3 20 8 0 4 10 12 23 17 12 6 21 16 19 23
-2 10 2 10 19 2 11 -7 23 -9 27 -6 3 3 0 6 -7 6 -7 0 -9 5 -5 12 4 7 3 8 -4 4
-17 -11 -14 5 5 26 9 10 11 18 5 18 -6 0 -13 -6 -15 -12 -4 -9 -6 -9 -6 -1 -2
19 65 54 93 49 14 -2 59 -25 100 -50 42 -25 80 -46 86 -46 6 0 13 -7 16 -15 4
-8 10 -13 14 -10 5 3 16 2 25 -1 13 -5 7 -11 -22 -24 -37 -16 -38 -17 -15 -29
12 -6 22 -18 22 -26 0 -8 5 -15 11 -15 5 0 7 4 4 10 -3 6 1 7 9 4 9 -3 16 -9
16 -13 0 -9 63 -7 78 2 6 5 16 6 21 2 5 -3 13 0 16 6 5 7 12 2 19 -13 10 -19
20 -23 56 -23 25 0 48 3 51 8 3 4 40 -2 82 -13 80 -20 245 -45 252 -38 2 2
-46 12 -108 21 -214 34 -499 144 -701 271 -48 31 -93 53 -99 49 -5 -3 -7 -2
-4 4 4 6 -39 45 -94 88 -55 43 -130 110 -166 149 -89 96 -226 281 -296 397
-116 195 -209 483 -232 719 -7 69 -13 112 -14 96 -1 -28 -2 -29 -47 -22 -26 3
-54 1 -66 -5 -13 -7 -18 -7 -14 -1 3 6 0 13 -6 16 -9 4 -8 5 2 5 8 -1 26 -1
40 0 19 1 21 4 11 10 -8 5 -21 7 -28 4 -10 -4 -13 0 -11 13 2 16 -3 19 -32 17
-25 -2 -31 0 -20 7 8 5 24 10 35 10 18 1 18 2 -3 11 -13 5 -34 6 -46 3 -16 -4
-23 -1 -23 10 0 11 8 13 27 9 17 -3 31 0 35 8 6 9 3 11 -9 6 -21 -8 -56 12
-49 29 2 7 -4 14 -14 17 -11 2 -9 3 5 2 12 -1 22 2 22 6 0 5 -9 9 -19 9 -14 0
-19 6 -16 20 2 11 0 20 -5 20 -5 0 -7 7 -4 15 4 9 0 15 -7 15 -12 0 -12 2 0 9
9 6 12 22 8 53 -6 52 4 137 31 263 32 144 33 153 12 91 -58 -170 -88 -555 -60
-774 24 -192 80 -434 131 -562 44 -109 203 -414 260 -496 75 -108 82 -179 39
-424 -27 -156 -30 -192 -17 -187 33 12 284 78 369 98 94 21 99 21 136 5 21
-10 51 -28 67 -40 24 -19 26 -25 16 -43 -6 -12 -11 -31 -11 -43 0 -23 -22 -34
-150 -76 -119 -38 -120 -38 -70 -10 45 25 45 25 14 26 -36 0 -111 -25 -337
-114 -92 -36 -177 -66 -188 -66 -19 0 -20 5 -15 43 l6 42 -19 -51 c-20 -54
-61 -124 -73 -124 -5 0 -8 8 -8 18 0 34 166 538 171 517 3 -16 17 101 28 245
6 74 13 144 15 154 7 28 -16 77 -73 152 -100 132 -218 395 -270 601 -44 174
-58 262 -72 428 -50 643 174 1245 637 1709 337 338 800 571 1279 641 122 18
454 18 585 1z m1726 -79 c60 -30 86 -58 113 -117 59 -131 -8 -291 -149 -354
-51 -23 -70 -27 -108 -21 -106 15 -181 68 -211 151 -36 94 -26 178 31 261 73
109 204 141 324 80z m-531 -690 c6 -5 3 -7 -7 -3 -10 3 -18 1 -18 -4 0 -6 5
-10 10 -10 6 0 10 -5 10 -11 0 -8 -5 -8 -15 1 -16 13 -21 0 -6 -15 6 -6 4 -15
-4 -22 -11 -10 -14 -8 -13 10 1 30 19 79 27 70 3 -4 11 -12 16 -16z m-2063
-25 c3 -11 0 -19 -7 -19 -7 0 -10 8 -7 19 2 10 6 18 7 18 1 0 5 -8 7 -18z m35
-4 c-3 -8 -6 -5 -6 6 -1 11 2 17 5 13 3 -3 4 -12 1 -19z m380 -10 c-3 -8 -6
-5 -6 6 -1 11 2 17 5 13 3 -3 4 -12 1 -19z m20 0 c-3 -8 -6 -5 -6 6 -1 11 2
17 5 13 3 -3 4 -12 1 -19z m1460 0 c-3 -8 -6 -5 -6 6 -1 11 2 17 5 13 3 -3 4
-12 1 -19z m27 6 c3 -8 2 -12 -4 -9 -6 3 -10 10 -10 16 0 14 7 11 14 -7z
m-1697 -16 c-3 -8 -6 -5 -6 6 -1 11 2 17 5 13 3 -3 4 -12 1 -19z m20 0 c-3 -8
-6 -5 -6 6 -1 11 2 17 5 13 3 -3 4 -12 1 -19z m113 7 c0 -8 -4 -15 -10 -15 -5
0 -7 7 -4 15 4 8 8 15 10 15 2 0 4 -7 4 -15z m110 11 c0 -3 -4 -8 -10 -11 -5
-3 -10 -1 -10 4 0 6 5 11 10 11 6 0 10 -2 10 -4z m347 -18 c-3 -8 -6 -5 -6 6
-1 11 2 17 5 13 3 -3 4 -12 1 -19z m20 0 c-3 -8 -6 -5 -6 6 -1 11 2 17 5 13 3
-3 4 -12 1 -19z m20 -10 c-3 -7 -5 -2 -5 12 0 14 2 19 5 13 2 -7 2 -19 0 -25z
m1045 -43 c5 19 6 19 7 -1 1 -13 -6 -24 -16 -26 -15 -4 -18 3 -19 51 l-2 56
12 -50 c9 -36 14 -45 18 -30z m-1822 50 c0 -8 -4 -15 -10 -15 -5 0 -7 7 -4 15
4 8 8 15 10 15 2 0 4 -7 4 -15z m905 -4 c-3 -6 -14 -10 -23 -10 -15 1 -15 2 1
6 9 2 17 9 17 15 0 6 3 9 6 5 3 -3 3 -10 -1 -16z m872 -13 c-3 -8 -6 -5 -6 6
-1 11 2 17 5 13 3 -3 4 -12 1 -19z m107 6 c3 -8 2 -12 -4 -9 -6 3 -10 10 -10
16 0 14 7 11 14 -7z m23 -16 c-3 -7 -5 -2 -5 12 0 14 2 19 5 13 2 -7 2 -19 0
-25z m-2263 6 c3 -8 2 -12 -4 -9 -6 3 -10 10 -10 16 0 14 7 11 14 -7z m285
-54 c0 -9 -4 -8 -9 5 -8 18 -9 18 -10 -5 -2 -21 -3 -22 -7 -5 -3 11 -13 25
-22 33 -14 11 -13 12 7 2 18 -9 22 -8 23 7 0 16 1 16 9 -2 5 -11 9 -27 9 -35z
m21 39 c0 8 2 12 5 9 3 -3 1 -16 -4 -29 -5 -13 -10 -19 -10 -12 -1 6 -4 20 -7
30 -5 15 -4 15 5 3 9 -12 11 -13 11 -1z m37 -26 c-3 -10 -5 -4 -5 12 0 17 2
24 5 18 2 -7 2 -21 0 -30z m-153 19 c3 -5 -1 -9 -9 -9 -8 0 -12 4 -9 9 3 4 7
8 9 8 2 0 6 -4 9 -8z m2481 -34 c17 -23 43 -59 59 -81 62 -85 157 -265 211
-399 59 -149 115 -354 115 -425 0 -38 -4 -44 -32 -59 -27 -14 -51 -15 -164 -9
-158 8 -165 13 -195 128 -48 189 -185 463 -290 580 -46 52 -47 55 -32 77 l16
23 13 -24 c13 -24 13 -24 8 6 -4 25 3 39 48 89 57 65 159 136 192 136 13 -1
33 -17 51 -42z m-2518 10 c-3 -8 -6 -5 -6 6 -1 11 2 17 5 13 3 -3 4 -12 1 -19z
m1920 0 c-3 -8 -6 -5 -6 6 -1 11 2 17 5 13 3 -3 4 -12 1 -19z m20 0 c-3 -8 -6
-5 -6 6 -1 11 2 17 5 13 3 -3 4 -12 1 -19z m158 0 c13 -3 8 -6 -16 -9 -24 -3
-36 -1 -36 8 0 7 4 10 9 7 4 -3 8 1 8 8 0 9 2 10 8 2 4 -7 16 -14 27 -16z m35
12 c0 -5 -7 -7 -15 -4 -8 4 -15 8 -15 10 0 2 7 4 15 4 8 0 15 -4 15 -10z
m-943 -6 c-3 -3 -12 -4 -19 -1 -8 3 -5 6 6 6 11 1 17 -2 13 -5z m44 -17 c-10
-9 -11 -8 -5 6 3 10 9 15 12 12 3 -3 0 -11 -7 -18z m654 7 c-11 -8 -19 -20
-17 -25 1 -6 -2 -7 -8 -4 -13 8 16 45 34 45 6 0 2 -8 -9 -16z m-1795 -24 c0
-5 -8 -10 -17 -10 -15 0 -16 2 -3 10 19 12 20 12 20 0z m-225 -10 c3 -5 1 -10
-4 -10 -6 0 -11 5 -11 10 0 6 2 10 4 10 3 0 8 -4 11 -10z m1446 -13 c-10 -9
-11 -8 -5 6 3 10 9 15 12 12 3 -3 0 -11 -7 -18z m526 8 c0 -8 -5 -11 -10 -8
-7 4 -8 -1 -3 -13 6 -15 5 -16 -5 -7 -10 10 -9 15 1 28 15 19 17 19 17 0z
m177 6 c3 -4 -6 -6 -19 -3 -14 2 -25 6 -25 8 0 8 39 4 44 -5z m-50 -33 c-3 -4
2 -8 10 -8 8 0 16 8 18 17 3 15 4 15 21 -1 10 -10 15 -21 12 -24 -3 -4 -10 0
-15 8 -7 10 -10 11 -10 3 0 -7 -11 -13 -24 -13 -16 0 -26 -7 -29 -21 -4 -16
-10 -19 -28 -14 -13 4 -29 14 -37 21 -11 12 -11 14 5 15 10 0 13 3 6 6 -7 2
-13 12 -12 21 0 11 2 12 6 4 2 -6 9 -10 14 -6 5 3 9 -2 9 -10 0 -9 5 -16 11
-16 6 0 9 -7 5 -15 -3 -8 -1 -15 4 -15 6 0 10 4 10 9 0 5 3 17 7 27 5 13 3 16
-10 11 -19 -7 -20 -6 -11 17 5 12 9 13 24 4 10 -7 16 -16 14 -20z m-1957 -20
c-3 -7 -5 -2 -5 12 0 14 2 19 5 13 2 -7 2 -19 0 -25z m-365 -10 c-6 -6 -12 -6
-17 3 -5 8 -4 10 3 5 7 -4 12 0 13 11 0 12 2 13 6 5 3 -8 1 -18 -5 -24z m340
-10 c-6 -6 -7 0 -4 19 5 21 7 23 10 9 2 -10 0 -22 -6 -28z m1790 0 c-6 -6 -12
-6 -17 3 -5 8 -4 10 3 5 7 -4 12 0 13 11 0 12 2 13 6 5 3 -8 1 -18 -5 -24z
m-1975 0 c-3 -8 -6 -5 -6 6 -1 11 2 17 5 13 3 -3 4 -12 1 -19z m1103 8 c236
-38 497 -163 648 -310 57 -55 162 -192 206 -267 30 -52 86 -211 86 -244 0 -12
-9 -30 -20 -40 -17 -15 -43 -17 -232 -18 l-213 -1 -25 51 c-14 27 -35 64 -48
81 -13 18 -21 32 -19 32 10 0 47 -39 47 -49 0 -7 5 -9 10 -6 6 3 10 2 10 -3 0
-4 14 -24 30 -42 17 -18 30 -37 30 -42 0 -4 48 -7 108 -6 l107 2 -98 3 c-83 3
-98 6 -93 19 3 8 2 13 -2 10 -13 -8 -27 6 -74 79 -101 157 -295 294 -478 338
-36 9 -90 19 -120 22 -71 9 -227 -9 -310 -35 -71 -23 -206 -98 -236 -131 -15
-17 -11 -16 21 6 49 32 176 94 207 100 104 21 152 25 263 24 55 -1 117 -1 137
0 21 0 50 -5 65 -11 16 -6 32 -10 36 -9 5 1 6 -3 3 -8 -4 -5 3 -13 15 -16 11
-4 19 -9 16 -11 -2 -3 -40 5 -83 18 -143 40 -367 22 -511 -42 -145 -64 -298
-211 -368 -354 -66 -134 -80 -196 -80 -356 0 -150 14 -212 80 -356 118 -259
350 -425 627 -450 127 -12 305 30 411 97 117 75 189 161 286 340 45 84 55 97
82 103 18 3 107 6 199 6 157 0 169 -1 195 -22 26 -20 27 -25 22 -82 -6 -82
-63 -227 -129 -333 -97 -156 -304 -346 -463 -426 -66 -33 -302 -113 -310 -105
-2 2 41 19 96 38 54 19 99 38 99 43 0 4 5 5 12 1 6 -4 16 -1 22 7 6 8 29 20
51 27 23 6 50 20 61 31 12 10 34 26 51 34 16 9 35 23 42 31 7 9 17 13 22 10 5
-3 8 0 7 8 -2 8 4 12 15 10 9 -2 16 2 15 8 -2 5 15 26 37 46 23 20 9 12 -32
-18 -205 -152 -397 -222 -691 -252 -71 -7 -231 12 -326 40 -204 58 -426 192
-578 349 -66 68 -162 210 -202 298 -56 122 -116 327 -116 394 0 15 -3 23 -7
20 -3 -4 0 -52 7 -108 11 -87 54 -234 114 -394 5 -11 -1 -6 -13 10 -27 38 -93
210 -114 295 -69 278 -26 623 111 895 165 329 475 550 867 619 105 19 308 20
415 2z m975 -8 c6 -4 2 -8 -7 -8 -10 0 -18 7 -18 17 0 9 3 12 8 7 4 -5 12 -12
17 -16z m-1932 5 c-7 -2 -13 -13 -13 -24 0 -16 -2 -17 -13 -7 -16 14 -2 37 23
37 10 0 11 -2 3 -6z m2038 0 c-11 -5 -11 -7 0 -14 11 -7 10 -9 -3 -9 -10 0
-18 -5 -18 -11 0 -5 6 -7 13 -3 8 5 8 2 -2 -9 -8 -10 -28 -17 -47 -17 -20 0
-34 -5 -35 -12 0 -10 -2 -10 -6 0 -7 17 -33 15 -33 -3 0 -8 -15 -21 -32 -29
-18 -8 -27 -15 -20 -15 7 -1 11 -5 7 -10 -3 -5 0 -13 6 -17 7 -4 9 -3 6 2 -3
6 -2 16 4 24 7 13 9 13 10 0 1 -8 1 -24 0 -35 l-1 -20 9 20 c5 11 7 23 4 28
-7 12 28 20 39 9 14 -14 -116 -152 -142 -152 -9 0 -29 14 -46 31 -28 30 -28
31 -10 45 14 10 16 14 5 14 -12 0 -12 2 1 10 20 13 33 13 25 0 -3 -5 -1 -10 4
-10 6 0 11 2 11 4 0 2 3 12 7 22 4 11 3 15 -4 11 -7 -5 -9 0 -6 13 3 11 9 17
14 14 5 -3 6 3 2 13 -5 14 -3 16 7 6 13 -12 27 -10 67 9 20 10 21 12 6 23 -11
8 -13 14 -5 19 7 4 12 2 12 -3 0 -6 4 -11 9 -11 5 0 7 8 4 18 -3 12 1 19 11
19 19 0 21 -13 4 -20 -8 -3 -6 -6 5 -6 9 -1 17 5 17 12 0 9 11 12 34 9 28 -3
35 0 41 17 3 12 14 21 23 20 12 0 13 -2 3 -6z m-510 -26 c-10 -9 -11 -8 -5 6
3 10 9 15 12 12 3 -3 0 -11 -7 -18z m-1704 -9 c-3 -8 -6 -5 -6 6 -1 11 2 17 5
13 3 -3 4 -12 1 -19z m2031 -9 c-3 -8 -7 -3 -11 10 -4 17 -3 21 5 13 5 -5 8
-16 6 -23z m-1928 -4 c0 -10 -9 -15 -27 -14 -24 2 -25 2 -5 6 12 2 22 9 22 14
0 5 2 9 5 9 3 0 5 -7 5 -15z m1881 1 c5 3 -1 -15 -13 -40 -17 -35 -24 -43 -31
-31 -5 9 -1 29 9 52 10 20 20 31 22 25 2 -7 8 -10 13 -6z m-2184 -18 c-3 -8
-6 -5 -6 6 -1 11 2 17 5 13 3 -3 4 -12 1 -19z m2133 -64 c0 -2 -7 -4 -15 -4
-8 0 -15 -4 -15 -9 0 -5 10 -7 23 -4 17 3 16 1 -8 -13 -17 -10 -25 -19 -17
-22 6 -2 9 -8 6 -13 -3 -6 -11 -5 -20 2 -19 16 -18 29 4 30 11 1 9 4 -8 9 -17
5 -19 8 -7 9 9 1 17 6 17 11 0 6 8 10 17 10 9 0 13 3 10 7 -4 3 -18 1 -31 -6
-28 -16 -58 -11 -63 9 -4 13 -3 13 5 1 9 -12 14 -12 36 3 15 9 31 14 35 11 5
-3 7 5 5 17 -3 13 1 9 10 -11 9 -18 16 -35 16 -37z m108 57 c10 -6 6 -11 -17
-19 -19 -7 -33 -7 -36 -1 -4 5 6 9 22 10 l28 1 -25 8 c-21 7 -21 8 -5 9 11 0
26 -3 33 -8z m-2143 -23 c5 -4 0 -6 -12 -6 -13 1 -19 7 -16 15 3 8 8 10 12 6
3 -4 10 -11 16 -15z m2230 0 c13 -3 8 -6 -16 -9 -33 -4 -35 -3 -26 13 6 9 14
13 17 9 3 -5 14 -11 25 -13z m-2082 -8 c-3 -11 -7 -20 -9 -20 -2 0 -4 9 -4 20
0 11 4 20 9 20 5 0 7 -9 4 -20z m-66 -42 c-3 -7 -5 -2 -5 12 0 14 2 19 5 13 2
-7 2 -19 0 -25z m20 0 c-3 -7 -5 -2 -5 12 0 14 2 19 5 13 2 -7 2 -19 0 -25z
m-267 1 c5 10 9 9 13 -2 4 -10 0 -14 -11 -13 -9 2 -17 9 -18 17 -1 12 0 12 4
0 3 -11 6 -11 12 -2z m140 1 c0 -12 -7 -20 -17 -20 -15 0 -16 -2 -3 -10 12 -7
10 -9 -7 -8 -14 2 -19 7 -15 17 4 10 1 12 -8 6 -8 -5 -11 -4 -6 3 3 6 15 9 26
7 13 -2 20 2 20 11 0 8 2 14 5 14 3 0 5 -9 5 -20z m17 -12 c-3 -8 -6 -5 -6 6
-1 11 2 17 5 13 3 -3 4 -12 1 -19z m76 -26 c-11 -11 -26 -16 -38 -13 -19 5
-18 6 3 9 12 2 20 8 17 13 -4 5 3 9 14 9 20 0 20 -1 4 -18z m-56 -44 c-3 -8
-6 -5 -6 6 -1 11 2 17 5 13 3 -3 4 -12 1 -19z m-152 -36 c-3 -3 -11 0 -18 7
-9 10 -8 11 6 5 10 -3 15 -9 12 -12z m-1092 -108 c-14 -43 -28 -73 -30 -67 -4
12 15 76 38 126 23 50 19 21 -8 -59z m3511 -40 c4 -9 2 -13 -5 -8 -8 4 -9 -1
-5 -17 6 -19 5 -21 -4 -7 -5 9 -7 23 -4 32 8 20 10 20 18 0z m-2571 -31 c-7
-2 -19 -2 -25 0 -7 3 -2 5 12 5 14 0 19 -2 13 -5z m2528 -11 c-7 -2 -18 1 -23
6 -8 8 -4 9 13 5 13 -4 18 -8 10 -11z m-3511 -28 c0 -17 -63 -252 -79 -292
-12 -31 -19 -76 -20 -136 -1 -49 -4 -93 -7 -98 -3 -4 -7 -77 -10 -160 -3 -84
-10 -166 -15 -182 -5 -16 -9 -38 -8 -50 1 -18 3 -17 13 8 13 27 13 26 19 -35
10 -93 45 -280 75 -404 15 -60 27 -114 27 -120 0 -5 4 -16 8 -22 5 -7 6 -17 2
-22 -3 -5 -1 -12 4 -15 5 -3 12 -18 16 -33 17 -69 191 -391 267 -494 18 -24
18 -29 3 -135 -9 -60 -28 -152 -42 -204 -14 -52 -36 -135 -49 -185 -14 -49
-34 -127 -46 -172 -12 -45 -25 -80 -30 -77 -4 3 -5 -2 -2 -11 4 -8 -1 -39 -11
-68 -9 -28 -28 -90 -41 -135 -28 -97 -51 -145 -64 -137 -6 4 -10 16 -10 28 0
25 38 175 71 282 62 203 142 504 163 615 9 47 23 107 32 133 l16 48 -90 137
c-50 75 -107 170 -127 211 -72 143 -141 348 -181 536 -35 169 -38 193 -42 390
-3 171 0 224 13 285 9 41 23 107 30 145 23 118 42 197 82 337 3 10 10 15 16
11 6 -4 8 0 4 10 -3 10 -2 17 3 17 6 0 10 -3 10 -6z m947 -56 c-3 -7 -5 -2 -5
12 0 14 2 19 5 13 2 -7 2 -19 0 -25z m88 -6 c-3 -3 -11 0 -18 7 -9 10 -8 11 6
5 10 -3 15 -9 12 -12z m-59 -14 c4 -7 4 -10 -1 -6 -4 4 -14 0 -22 -10 -13 -15
-13 -15 -3 6 12 25 16 27 26 10z m21 -10 c-3 -8 -6 -5 -6 6 -1 11 2 17 5 13 3
-3 4 -12 1 -19z m2579 3 c10 8 12 6 9 -10 -3 -14 1 -21 12 -21 9 0 13 6 9 15
-8 22 2 18 14 -5 6 -11 7 -20 3 -19 -20 3 -43 -2 -43 -10 0 -5 10 -7 23 -5 12
2 15 1 7 -2 -8 -4 -17 -11 -21 -15 -3 -5 -15 12 -28 39 -12 26 -17 41 -10 35
9 -9 16 -9 25 -2z m93 -42 c1 8 3 12 6 10 2 -3 1 -16 -2 -29 -6 -22 -7 -23
-14 -4 -11 27 -10 54 1 29 5 -12 9 -14 9 -6z m-17 -37 c4 -13 -1 -18 -16 -19
-12 -1 -15 1 -8 4 6 3 12 11 12 19 0 20 7 18 12 -4z m-25 2 c-3 -3 -12 -4 -19
-1 -8 3 -5 6 6 6 11 1 17 -2 13 -5z m-734 -57 c-4 -7 -8 -6 -11 3 -3 8 -12 24
-21 35 -11 14 -8 13 11 -4 15 -13 24 -29 21 -34z m801 45 c3 -5 -1 -9 -9 -9
-8 0 -12 4 -9 9 3 4 7 8 9 8 2 0 6 -4 9 -8z m-87 -9 c-4 -3 -2 -12 4 -20 9 -9
8 -13 0 -13 -6 0 -11 2 -11 4 0 2 -3 11 -6 20 -4 10 -1 16 7 16 7 0 9 -3 6 -7z
m80 -35 c-3 -8 -6 -5 -6 6 -1 11 2 17 5 13 3 -3 4 -12 1 -19z m-2770 -30 c-3
-8 -6 -5 -6 6 -1 11 2 17 5 13 3 -3 4 -12 1 -19z m2838 12 c4 -6 -1 -7 -11 -3
-13 5 -15 3 -9 -7 5 -9 4 -11 -4 -6 -6 4 -9 12 -6 17 8 12 22 12 30 -1z m-115
-45 c0 -5 -5 -3 -10 5 -5 8 -10 20 -10 25 0 6 5 3 10 -5 5 -8 10 -19 10 -25z
m-2689 2 c-10 -9 -11 -8 -5 6 3 10 9 15 12 12 3 -3 0 -11 -7 -18z m2750 -14
c7 -10 9 -15 5 -11 -5 4 -15 3 -23 -3 -9 -9 -13 -8 -13 0 0 6 -4 11 -10 11 -5
0 -6 -7 -3 -17 4 -11 3 -14 -5 -9 -19 11 -14 26 11 36 12 5 23 9 23 9 1 1 8
-7 15 -16z m-1724 -35 c-3 -8 -6 -5 -6 6 -1 11 2 17 5 13 3 -3 4 -12 1 -19z
m-1022 2 c3 -6 -1 -7 -9 -4 -18 7 -21 14 -7 14 6 0 13 -4 16 -10z m1157 -46
c-2 -13 -11 -24 -18 -24 -8 0 -14 -5 -14 -11 0 -5 -4 -7 -10 -4 -5 3 -10 0
-10 -7 0 -9 -3 -9 -10 2 -7 11 -10 7 -11 -20 -1 -22 -3 -28 -6 -15 -3 11 -10
23 -17 27 -8 6 -7 8 2 8 7 0 10 5 6 12 -4 7 -3 8 4 4 8 -5 12 2 13 21 l1 28 8
-30 c7 -29 8 -29 10 10 l3 40 7 -35 7 -35 2 35 c2 29 4 32 11 15 8 -18 9 -18
9 5 1 17 4 21 10 12 4 -7 6 -24 3 -38z m-1286 -20 c-3 -8 -11 -14 -18 -13 -10
0 -10 2 0 6 6 2 13 19 13 36 1 25 3 27 6 9 3 -13 2 -30 -1 -38z m-19 14 c-3
-7 -5 -2 -5 12 0 14 2 19 5 13 2 -7 2 -19 0 -25z m1100 25 c-9 -2 -15 -9 -12
-14 4 -5 1 -9 -4 -9 -12 0 -14 13 -4 23 3 4 13 6 22 6 13 -1 12 -2 -2 -6z
m-1190 -35 c-3 -8 -6 -5 -6 6 -1 11 2 17 5 13 3 -3 4 -12 1 -19z m70 -10 c-3
-7 -5 -2 -5 12 0 14 2 19 5 13 2 -7 2 -19 0 -25z m1178 -17 c-3 -6 -11 -11
-16 -11 -5 0 -4 6 3 14 14 16 24 13 13 -3z m29 3 c3 -8 2 -12 -4 -9 -6 3 -10
10 -10 16 0 14 7 11 14 -7z m-64 -17 c0 -7 -4 -6 -10 3 -8 13 -10 12 -10 -4 0
-11 -3 -17 -6 -13 -4 3 -4 13 0 22 6 18 26 11 26 -8z m-1043 -19 c-3 -8 -6 -5
-6 6 -1 11 2 17 5 13 3 -3 4 -12 1 -19z m20 0 c-3 -8 -6 -5 -6 6 -1 11 2 17 5
13 3 -3 4 -12 1 -19z m-150 -10 c-3 -8 -6 -5 -6 6 -1 11 2 17 5 13 3 -3 4 -12
1 -19z m1239 7 c-3 -10 1 -15 12 -16 16 -1 16 -2 0 -6 -11 -3 -15 -10 -11 -21
5 -12 0 -10 -17 6 -13 12 -20 25 -17 29 4 3 7 1 7 -5 0 -7 5 -12 10 -12 6 0 9
3 9 8 -3 15 1 32 7 32 3 0 4 -7 0 -15z m-148 -22 c-10 -2 -18 -9 -18 -15 0 -6
-3 -9 -6 -5 -10 10 6 27 24 26 15 -1 15 -2 0 -6z m94 -11 c-4 -11 -1 -13 7 -7
10 6 11 3 2 -14 -7 -11 -14 -21 -17 -21 -3 0 -2 4 1 10 3 5 1 18 -4 28 -7 14
-6 19 4 19 7 0 11 -7 7 -15z m-52 4 c0 -2 -7 -7 -16 -10 -8 -3 -12 -2 -9 4 6
10 25 14 25 6z m2031 -23 c44 -23 58 -37 81 -82 56 -108 25 -215 -84 -287 -83
-56 -174 -54 -256 6 -52 37 -72 68 -83 127 -17 88 31 178 124 232 70 41 141
42 218 4z m-3148 2 c-3 -9 -8 -14 -10 -11 -3 3 -2 9 2 15 9 16 15 13 8 -4z
m40 -15 c-3 -12 -8 -19 -11 -16 -5 6 5 36 12 36 2 0 2 -9 -1 -20z m1644 -23
c66 -35 106 -183 69 -256 -19 -36 -80 -90 -122 -107 -71 -30 -191 -8 -236 43
-22 24 -48 97 -48 135 0 34 49 135 78 161 52 48 189 60 259 24z m-537 -68 c0
-15 -5 -19 -16 -15 -12 5 -14 1 -9 -17 5 -18 4 -19 -5 -5 -5 9 -7 24 -4 33 5
13 8 14 15 3 7 -10 9 -9 9 5 0 9 2 17 5 17 3 0 5 -9 5 -21z m-170 -32 c10 -4
8 -6 -7 -6 -16 -1 -23 5 -23 17 0 10 3 13 8 6 4 -6 14 -14 22 -17z m50 -30 c0
-7 -4 -6 -10 3 -8 12 -10 12 -10 1 0 -8 -3 -12 -6 -8 -9 9 6 28 17 22 5 -4 9
-12 9 -18z m-83 -9 c-3 -8 -6 -5 -6 6 -1 11 2 17 5 13 3 -3 4 -12 1 -19z m21
-30 c-8 -22 -13 -26 -19 -16 -5 7 -9 18 -9 23 0 6 5 3 10 -5 8 -13 10 -12 11
5 1 11 1 27 0 35 -2 13 0 13 8 1 5 -9 5 -25 -1 -43z m1479 20 c-3 -8 -6 -5 -6
6 -1 11 2 17 5 13 3 -3 4 -12 1 -19z m150 -3 c-4 -8 -12 -15 -19 -14 -10 0
-10 2 0 6 6 2 12 12 12 21 0 8 3 13 6 9 4 -3 4 -13 1 -22z m-1563 -3 c3 -5 -1
-9 -9 -9 -8 0 -12 4 -9 9 3 4 7 8 9 8 2 0 6 -4 9 -8z m1479 -8 c-3 -9 -9 -12
-12 -7 -3 4 -10 11 -15 16 -5 4 0 7 12 7 15 0 20 -4 15 -16z m-1506 -20 c5
-13 7 -13 14 -2 7 10 9 10 9 -2 0 -13 1 -13 11 0 7 10 9 11 7 2 -2 -8 -7 -13
-12 -12 -5 1 -13 -4 -17 -12 -6 -8 -9 -9 -9 -1 0 15 -33 10 -38 -7 -3 -8 0
-10 9 -5 8 5 11 5 7 0 -4 -4 -2 -15 5 -24 10 -14 10 -14 -5 -3 -9 8 -22 11
-27 7 -7 -4 -8 1 -4 12 9 27 24 43 34 37 5 -3 9 -1 9 5 0 5 -6 12 -12 14 -10
4 -10 6 0 6 7 1 15 -6 19 -15z m1413 4 c0 -4 -9 -8 -21 -8 -11 0 -18 4 -15 8
3 5 12 9 21 9 8 0 15 -4 15 -9z m167 -4 c-3 -3 -12 -4 -19 -1 -8 3 -5 6 6 6
11 1 17 -2 13 -5z m-151 -35 c1 -25 -1 -28 -8 -15 -5 10 -7 24 -4 32 8 21 11
17 12 -17z m-128 -24 c-2 -1 -12 7 -23 18 -11 11 -14 17 -7 13 7 -4 12 -2 13
6 0 7 5 2 10 -11 5 -13 8 -25 7 -26z m95 38 c-7 -2 -19 -2 -25 0 -7 3 -2 5 12
5 14 0 19 -2 13 -5z m174 1 c-3 -3 -12 -4 -19 -1 -8 3 -5 6 6 6 11 1 17 -2 13
-5z m-2603 -12 c3 -5 -1 -9 -9 -9 -8 0 -12 4 -9 9 3 4 7 8 9 8 2 0 6 -4 9 -8z
m2506 -2 c0 -5 5 -9 12 -7 6 1 13 -7 15 -18 l3 -20 -9 20 -10 20 -1 -20 c-1
-11 -4 -14 -7 -7 -2 6 -12 12 -21 12 -14 0 -14 2 -3 9 11 7 10 10 -5 14 -16 4
-16 5 4 6 12 0 22 -3 22 -9z m877 -27 c-3 -10 -5 -4 -5 12 0 17 2 24 5 18 2
-7 2 -21 0 -30z m-782 18 c3 -5 2 -12 -3 -15 -5 -3 -9 1 -9 9 0 17 3 19 12 6z
m-360 -11 c-3 -5 -12 -10 -18 -10 -7 0 -6 4 3 10 19 12 23 12 15 0z m52 -22
c-3 -7 -5 -2 -5 12 0 14 2 19 5 13 2 -7 2 -19 0 -25z m53 -5 c-11 -17 -11 -17
-6 0 3 10 6 24 7 30 0 9 2 9 5 0 3 -7 0 -20 -6 -30z m-1185 -2 c-6 -5 -25 10
-25 20 0 5 6 4 14 -3 8 -7 12 -15 11 -17z m-118 -3 c-2 -8 -18 -14 -33 -15
-24 -1 -26 0 -9 6 11 5 23 7 28 4 4 -2 7 4 7 13 0 10 3 15 6 11 4 -3 4 -12 1
-19z m1190 -10 c-3 -8 -6 -5 -6 6 -1 11 2 17 5 13 3 -3 4 -12 1 -19z m1178 12
c-4 -6 6 -11 22 -11 l28 -1 -30 -8 c-53 -14 -75 -12 -68 6 4 12 7 13 14 3 6
-11 9 -10 15 4 3 9 10 17 16 17 5 0 6 -4 3 -10z m-3882 -25 c-3 -9 -8 -14 -10
-11 -3 3 -2 9 2 15 9 16 15 13 8 -4z m1531 -3 c3 -5 -1 -9 -9 -9 -8 0 -12 4
-9 9 3 4 7 8 9 8 2 0 6 -4 9 -8z m-44 -26 c0 -3 -4 -8 -10 -11 -5 -3 -10 -1
-10 4 0 6 5 11 10 11 6 0 10 -2 10 -4z m-33 -28 c-3 -8 -6 -5 -6 6 -1 11 2 17
5 13 3 -3 4 -12 1 -19z m-1339 -5 c-10 -2 -26 -2 -35 0 -10 3 -2 5 17 5 19 0
27 -2 18 -5z m1377 -23 c-2 -11 3 -27 11 -35 9 -8 11 -15 5 -15 -5 0 -13 5
-17 11 -10 17 -13 70 -3 64 4 -3 6 -14 4 -25z m37 -2 c-8 -8 -9 -4 -5 13 4 13
8 18 11 10 2 -7 -1 -18 -6 -23z m-65 -10 c-3 -8 -6 -5 -6 6 -1 11 2 17 5 13 3
-3 4 -12 1 -19z m-1357 -8 c0 -5 -4 -10 -10 -10 -5 0 -10 5 -10 10 0 6 5 10
10 10 6 0 10 -4 10 -10z m1443 -41 c-6 -6 -19 -9 -29 -6 -16 4 -15 5 4 6 12 0
22 6 22 13 0 6 3 8 7 5 4 -4 2 -12 -4 -18z m-1443 7 c0 -2 -7 -6 -15 -10 -8
-3 -15 -1 -15 4 0 6 7 10 15 10 8 0 15 -2 15 -4z m1418 -101 c-3 -3 -9 2 -12
12 -6 14 -5 15 5 6 7 -7 10 -15 7 -18z m63 -28 c-10 -9 -11 -8 -5 6 3 10 9 15
12 12 3 -3 0 -11 -7 -18z m-11 -42 c0 -6 9 -17 20 -25 11 -8 20 -18 20 -23 0
-14 -17 1 -51 44 -25 32 -28 38 -11 28 12 -8 22 -18 22 -24z m740 -29 c0 -2
-9 -6 -20 -9 -11 -3 -20 -1 -20 4 0 5 9 9 20 9 11 0 20 -2 20 -4z m1317 -43
c-3 -10 -5 -4 -5 12 0 17 2 24 5 18 2 -7 2 -21 0 -30z m-1400 5 c-3 -8 -6 -5
-6 6 -1 11 2 17 5 13 3 -3 4 -12 1 -19z m-582 -17 c-6 -5 -25 10 -25 20 0 5 6
4 14 -3 8 -7 12 -15 11 -17z m56 6 c-10 -9 -11 -8 -5 6 3 10 9 15 12 12 3 -3
0 -11 -7 -18z m1726 -24 c-3 -10 -5 -2 -5 17 0 19 2 27 5 18 2 -10 2 -26 0
-35z m-1424 17 c-3 -12 -8 -19 -11 -16 -5 6 5 36 12 36 2 0 2 -9 -1 -20z m207
15 c0 -7 -30 -13 -34 -7 -3 4 4 9 15 9 10 1 19 0 19 -2z m110 -5 c-8 -5 -10
-10 -4 -10 15 0 3 -62 -13 -67 -6 -2 -13 12 -15 33 -4 32 -3 34 9 18 10 -14
13 -15 13 -3 0 8 -4 19 -10 25 -6 6 -2 10 12 11 18 2 20 0 8 -7z m47 -12 c-3
-8 -6 -5 -6 6 -1 11 2 17 5 13 3 -3 4 -12 1 -19z m-410 -10 c-3 -8 -6 -5 -6 6
-1 11 2 17 5 13 3 -3 4 -12 1 -19z m20 0 c-3 -8 -6 -5 -6 6 -1 11 2 17 5 13 3
-3 4 -12 1 -19z m1510 -25 c-3 -10 -5 -2 -5 17 0 19 2 27 5 18 2 -10 2 -26 0
-35z m71 11 c-3 -14 -5 -12 -10 9 -3 19 -2 25 4 19 6 -6 8 -18 6 -28z m19 -1
c-3 -10 -5 -4 -5 12 0 17 2 24 5 18 2 -7 2 -21 0 -30z m-1728 10 c0 -11 -3
-13 -6 -5 -2 6 -9 10 -14 6 -5 -3 -9 0 -9 5 0 6 7 11 15 11 8 0 15 -8 14 -17z
m201 3 c0 7 14 11 30 10 17 0 30 -5 30 -10 0 -4 -11 -6 -25 -4 -14 3 -25 1
-25 -3 0 -5 -7 -9 -15 -9 -8 0 -15 -4 -15 -9 0 -6 12 -6 31 1 16 6 33 8 36 4
4 -3 1 -6 -6 -6 -7 0 -10 -4 -7 -9 3 -4 -6 -6 -19 -3 -19 3 -25 0 -26 -14 -1
-18 -2 -18 -6 0 -4 15 -7 16 -14 5 -7 -11 -9 -11 -9 -1 0 7 -4 10 -10 7 -6 -3
-7 1 -3 10 4 13 8 14 14 4 5 -9 10 -4 15 15 5 20 9 24 15 14 5 -8 9 -9 9 -2z
m74 -20 c-3 -15 -8 -25 -11 -23 -2 3 -1 17 3 31 3 15 8 25 11 23 2 -3 1 -17
-3 -31z m122 15 c1 -6 0 -7 -2 -2 -3 6 -12 7 -20 4 -8 -3 -14 -1 -14 5 0 14
33 8 36 -7z m1091 -3 c-3 -8 -6 -5 -6 6 -1 11 2 17 5 13 3 -3 4 -12 1 -19z
m20 0 c-3 -8 -6 -5 -6 6 -1 11 2 17 5 13 3 -3 4 -12 1 -19z m90 0 c-3 -8 -6
-5 -6 6 -1 11 2 17 5 13 3 -3 4 -12 1 -19z m20 -15 c-3 -10 -5 -4 -5 12 0 17
2 24 5 18 2 -7 2 -21 0 -30z m-1742 5 c6 -4 2 -8 -7 -8 -10 0 -18 7 -18 17 0
9 3 12 8 7 4 -5 12 -12 17 -16z m206 -29 c-5 -26 -9 -34 -10 -19 -1 27 9 73
15 67 2 -2 0 -23 -5 -48z m347 20 c-3 -8 -7 -3 -11 10 -4 17 -3 21 5 13 5 -5
8 -16 6 -23z m1096 -3 c-3 -15 -8 -25 -11 -23 -2 3 -1 17 3 31 3 15 8 25 11
23 2 -3 1 -17 -3 -31z m-1614 14 c0 -5 -5 -10 -11 -10 -5 0 -7 5 -4 10 3 6 8
10 11 10 2 0 4 -4 4 -10z m577 -12 c-3 -8 -6 -5 -6 6 -1 11 2 17 5 13 3 -3 4
-12 1 -19z m-159 -8 c12 0 9 -4 -8 -14 -28 -15 -40 -12 -40 11 0 10 6 13 16 9
9 -3 23 -6 32 -6z m1152 0 c0 -5 -7 -10 -15 -10 -8 0 -15 -5 -15 -12 0 -6 -3
-8 -7 -4 -5 4 1 14 11 22 23 17 26 17 26 4z m12 -22 c-8 -8 -9 -4 -5 13 4 13
8 18 11 10 2 -7 -1 -18 -6 -23z m-1567 12 c-16 -4 -24 -8 -16 -9 8 0 12 -3 9
-6 -3 -3 -20 1 -38 9 l-33 13 54 0 c44 0 49 -1 24 -7z m482 -27 c-3 -10 -5 -4
-5 12 0 17 2 24 5 18 2 -7 2 -21 0 -30z m1310 -25 c-2 -13 -4 -3 -4 22 0 25 2
35 4 23 2 -13 2 -33 0 -45z m20 30 c-3 -7 -5 -2 -5 12 0 14 2 19 5 13 2 -7 2
-19 0 -25z m-1517 18 c0 -3 -4 -8 -10 -11 -5 -3 -10 -1 -10 4 0 6 5 11 10 11
6 0 10 -2 10 -4z m1431 -37 c-6 -14 -10 -18 -11 -9 -1 10 -4 9 -10 -5 -8 -19
-9 -19 -9 3 -1 13 5 22 14 22 8 0 15 8 16 18 0 9 3 12 5 6 3 -6 0 -22 -5 -35z
m-1696 21 c-18 -8 -11 -13 15 -12 3 0 11 -6 18 -14 17 -18 8 -18 -28 1 -36 18
-39 35 -7 34 21 0 21 -1 2 -9z m102 -12 c-3 -8 -6 -5 -6 6 -1 11 2 17 5 13 3
-3 4 -12 1 -19z m330 -10 c-3 -8 -6 -5 -6 6 -1 11 2 17 5 13 3 -3 4 -12 1 -19z
m1138 12 c3 -5 1 -10 -4 -10 -6 0 -11 5 -11 10 0 6 2 10 4 10 3 0 8 -4 11 -10z
m34 -50 c1 13 2 13 11 0 5 -8 9 -24 9 -35 -1 -16 -2 -16 -9 5 l-8 25 -2 -25
-2 -25 -8 25 c-4 14 -8 41 -8 60 l1 35 7 -40 c4 -22 8 -33 9 -25z m8 28 c-3
-7 -5 -2 -5 12 0 14 2 19 5 13 2 -7 2 -19 0 -25z m-1370 -10 c-3 -7 -5 -2 -5
12 0 14 2 19 5 13 2 -7 2 -19 0 -25z m26 12 c3 -11 1 -20 -4 -20 -5 0 -9 9 -9
20 0 11 2 20 4 20 2 0 6 -9 9 -20z m124 -12 c-3 -7 -5 -2 -5 12 0 14 2 19 5
13 2 -7 2 -19 0 -25z m20 10 c-3 -8 -6 -5 -6 6 -1 11 2 17 5 13 3 -3 4 -12 1
-19z m1064 -9 c-5 -13 -10 -19 -10 -12 -1 15 10 45 15 40 3 -2 0 -15 -5 -28z
m156 -6 c-3 -10 -5 -4 -5 12 0 17 2 24 5 18 2 -7 2 -21 0 -30z m20 5 c-3 -7
-5 -2 -5 12 0 14 2 19 5 13 2 -7 2 -19 0 -25z m-1510 -15 c-3 -10 -5 -4 -5 12
0 17 2 24 5 18 2 -7 2 -21 0 -30z m60 15 c-3 -8 -6 -5 -6 6 -1 11 2 17 5 13 3
-3 4 -12 1 -19z m20 0 c-3 -8 -6 -5 -6 6 -1 11 2 17 5 13 3 -3 4 -12 1 -19z
m110 0 c-3 -8 -6 -5 -6 6 -1 11 2 17 5 13 3 -3 4 -12 1 -19z m20 -10 c-3 -7
-5 -2 -5 12 0 14 2 19 5 13 2 -7 2 -19 0 -25z m20 10 c-3 -8 -6 -5 -6 6 -1 11
2 17 5 13 3 -3 4 -12 1 -19z m1410 0 c-3 -8 -6 -5 -6 6 -1 11 2 17 5 13 3 -3
4 -12 1 -19z m-1697 2 c0 -5 -8 -10 -17 -10 -15 0 -16 2 -3 10 19 12 20 12 20
0z m37 4 c-3 -3 -12 -4 -19 -1 -8 3 -5 6 6 6 11 1 17 -2 13 -5z m1453 -14 c0
-11 -2 -20 -4 -20 -2 0 -6 9 -9 20 -3 11 -1 20 4 20 5 0 9 -9 9 -20z m-83 -62
c-2 -13 -4 -3 -4 22 0 25 2 35 4 23 2 -13 2 -33 0 -45z m60 30 c-3 -7 -5 -2
-5 12 0 14 2 19 5 13 2 -7 2 -19 0 -25z m-2327 -49 c0 -18 -22 5 -43 43 l-19
33 31 -33 c17 -18 31 -37 31 -43z m1043 64 c-7 -2 -19 -2 -25 0 -7 3 -2 5 12
5 14 0 19 -2 13 -5z m1244 -60 c-2 -16 -4 -5 -4 22 0 28 2 40 4 28 2 -13 2
-35 0 -50z m150 35 c-3 -7 -5 -2 -5 12 0 14 2 19 5 13 2 -7 2 -19 0 -25z m16
-29 c-5 -5 -7 7 -4 29 5 34 6 35 9 8 2 -16 0 -32 -5 -37z m-206 4 c-3 -10 -5
-2 -5 17 0 19 2 27 5 18 2 -10 2 -26 0 -35z m110 -10 c-3 -10 -5 -2 -5 17 0
19 2 27 5 18 2 -10 2 -26 0 -35z m160 -10 c-3 -10 -5 -2 -5 17 0 19 2 27 5 18
2 -10 2 -26 0 -35z m-180 5 c-3 -7 -5 -2 -5 12 0 14 2 19 5 13 2 -7 2 -19 0
-25z m163 -3 c0 -19 -2 -35 -4 -35 -2 0 -6 16 -8 35 -2 19 0 35 4 35 4 0 8
-16 8 -35z m-110 -20 c8 19 9 19 9 -2 1 -13 5 -23 10 -23 5 0 7 -10 3 -22 -5
-21 -6 -21 -13 -2 -6 16 -8 14 -9 -11 -2 -16 -1 -34 0 -40 1 -5 -2 -6 -6 -2
-5 4 -8 25 -7 45 2 36 1 36 -7 7 -10 -40 -12 -4 -3 50 7 38 8 39 12 10 3 -26
4 -28 11 -10z m-123 9 c-3 -3 -12 -4 -19 -1 -8 3 -5 6 6 6 11 1 17 -2 13 -5z
m33 -41 c-11 -17 -11 -17 -6 0 3 10 7 26 7 35 1 15 2 15 6 0 2 -10 -1 -25 -7
-35z m157 -30 c-2 -16 -4 -3 -4 27 0 30 2 43 4 28 2 -16 2 -40 0 -55z m20 10
c-2 -16 -4 -5 -4 22 0 28 2 40 4 28 2 -13 2 -35 0 -50z m-192 16 c0 -29 -15
-30 -16 -1 0 14 -2 13 -9 -3 -9 -22 -13 -6 -5 18 10 24 30 15 30 -14z m152 9
c-3 -8 -6 -5 -6 6 -1 11 2 17 5 13 3 -3 4 -12 1 -19z m-97 -18 c1 20 4 27 7
17 3 -10 2 -30 -2 -45 -5 -20 -8 -23 -16 -11 -7 11 -9 8 -9 -10 0 -13 -2 -22
-5 -19 -3 2 -2 27 2 54 l7 49 7 -35 6 -35 3 35z m-142 -7 c-2 -10 2 -17 8 -16
6 1 11 -5 11 -13 0 -7 -4 -14 -9 -14 -4 0 -8 -5 -8 -11 0 -5 4 -8 9 -5 5 4 7
-4 3 -16 -5 -21 -5 -21 -14 3 -5 13 -16 30 -25 37 -15 11 -15 12 3 12 16 0 17
2 4 10 -13 9 -13 10 0 10 13 0 13 1 0 10 -13 8 -12 10 3 10 12 0 17 -6 15 -17z
m39 -15 c-3 -8 -6 -5 -6 6 -1 11 2 17 5 13 3 -3 4 -12 1 -19z m40 -40 c-3 -7
-5 -2 -5 12 0 14 2 19 5 13 2 -7 2 -19 0 -25z m20 0 c-3 -7 -5 -2 -5 12 0 14
2 19 5 13 2 -7 2 -19 0 -25z m79 -34 c-6 -17 -26 -10 -26 9 0 7 4 6 10 -3 8
-13 10 -12 10 3 0 9 -4 17 -10 17 -5 0 -10 8 -10 17 0 14 3 13 16 -5 9 -13 13
-30 10 -38z m-232 19 c-7 -25 -6 -27 9 -15 9 8 22 12 29 9 9 -4 7 -6 -4 -6 -9
-1 -18 -5 -20 -9 -1 -5 -19 -11 -38 -15 -19 -3 -29 -3 -22 0 6 2 12 10 12 15
0 10 29 45 38 47 1 1 -1 -11 -4 -26z m31 17 c3 -5 1 -10 -4 -10 -6 0 -11 5
-11 10 0 6 2 10 4 10 3 0 8 -4 11 -10z m232 -12 c-3 -8 -6 -5 -6 6 -1 11 2 17
5 13 3 -3 4 -12 1 -19z m40 -10 c-3 -7 -5 -2 -5 12 0 14 2 19 5 13 2 -7 2 -19
0 -25z m-121 -16 c-15 -15 -15 -15 -4 10 7 15 15 23 17 17 2 -6 -4 -18 -13
-27z m95 0 c-6 -11 -7 -22 -4 -26 3 -3 1 -6 -5 -6 -7 0 -12 2 -12 5 0 10 24
55 27 51 3 -2 0 -13 -6 -24z m-176 -2 c-3 -5 -12 -10 -18 -10 -7 0 -6 4 3 10
19 12 23 12 15 0z m146 -17 c-12 -20 -14 -14 -5 12 4 9 9 14 11 11 3 -2 0 -13
-6 -23z m-94 -15 c-3 -8 -6 -5 -6 6 -1 11 2 17 5 13 3 -3 4 -12 1 -19z m-122
-36 c-3 -3 -5 1 -5 9 0 11 -2 11 -10 -1 -9 -13 -10 -13 -10 0 0 13 -1 13 -11
0 -9 -13 -10 -13 -6 0 2 8 10 14 16 13 6 -2 11 5 12 15 0 12 3 10 10 -7 5 -13
7 -26 4 -29z m162 26 c-3 -8 -6 -5 -6 6 -1 11 2 17 5 13 3 -3 4 -12 1 -19z
m-257 -15 c0 -22 -2 -25 -11 -13 -8 12 -9 10 -7 -10 2 -17 -2 -26 -14 -28 -12
-2 -18 3 -17 15 0 10 3 13 6 6 2 -7 9 -13 14 -13 6 0 7 5 3 11 -5 9 13 59 23
59 2 0 3 -12 3 -27z m30 12 c0 -8 10 -24 23 -36 12 -12 16 -19 10 -15 -7 4
-13 2 -13 -4 0 -6 13 -9 33 -7 17 2 25 2 16 0 -9 -2 -23 -19 -32 -37 -15 -32
-15 -34 4 -39 10 -3 19 -11 19 -19 0 -8 -3 -9 -8 -2 -4 6 -15 13 -25 17 -14 5
-16 11 -7 27 6 12 7 20 1 20 -5 0 -12 -6 -14 -12 -4 -8 -6 -7 -6 4 -1 9 -7 19
-13 22 -7 3 -2 3 11 0 20 -5 23 -4 16 12 -4 11 -10 27 -13 38 -4 16 -7 14 -18
-10 -12 -25 -13 -25 -7 -4 3 14 6 33 5 43 0 9 3 17 9 17 5 0 9 -7 9 -15z m96
-21 c-4 -14 -9 -24 -12 -21 -3 2 -2 17 2 31 3 15 9 25 11 22 3 -3 2 -17 -1
-32z m21 4 c-3 -8 -6 -5 -6 6 -1 11 2 17 5 13 3 -3 4 -12 1 -19z m20 -10 c-3
-7 -5 -2 -5 12 0 14 2 19 5 13 2 -7 2 -19 0 -25z m124 -1 c-10 -9 -11 -8 -5 6
3 10 9 15 12 12 3 -3 0 -11 -7 -18z m-101 -27 c0 13 1 13 10 0 9 -13 10 -13
10 0 0 13 1 13 10 0 5 -8 9 -22 9 -30 0 -10 -3 -8 -9 5 -8 18 -9 18 -10 -5
l-2 -25 -8 25 c-4 14 -9 18 -9 10 -1 -13 -2 -13 -11 0 -5 8 -10 20 -10 25 0 6
5 3 10 -5 9 -13 10 -13 10 0z m-12 -61 c9 -13 9 -16 -3 -16 -8 0 -15 9 -15 19
0 10 -3 18 -7 18 -5 0 -8 -11 -8 -24 0 -13 2 -23 5 -21 3 2 12 -1 20 -7 12 -8
12 -9 -2 -4 -12 4 -18 0 -19 -12 0 -10 -5 -6 -11 11 -5 15 -14 25 -19 22 -5
-4 -6 2 -2 11 4 12 3 15 -5 10 -7 -4 -12 -2 -12 3 0 6 9 11 20 11 14 0 18 5
13 17 -6 14 -4 14 13 -2 11 -11 25 -27 32 -36z m112 37 c0 -3 -4 -8 -10 -11
-5 -3 -10 -1 -10 4 0 6 5 11 10 11 6 0 10 -2 10 -4z m-373 -36 c-5 -20 -3 -28
6 -26 7 1 9 1 5 -1 -5 -3 -8 -14 -8 -26 -1 -15 -6 -9 -15 18 -17 47 -18 56 -5
35 8 -12 10 -11 10 8 0 12 3 22 6 22 4 0 4 -13 1 -30z m343 2 c0 -5 -7 -9 -15
-9 -8 0 -15 4 -15 9 0 4 7 8 15 8 8 0 15 -4 15 -8z m-377 -16 c4 -9 1 -13 -6
-10 -8 3 -13 -4 -13 -16 0 -11 4 -20 8 -20 4 0 8 -5 8 -11 0 -5 -5 -7 -12 -3
-8 5 -9 2 -4 -12 16 -40 17 -48 2 -22 -17 29 -18 75 -3 96 12 15 14 15 20 -2z
m108 5 c-10 -6 -5 -11 19 -16 22 -5 28 -10 20 -15 -10 -6 -8 -9 6 -13 17 -4
17 -5 1 -6 -10 0 -20 6 -23 14 -8 21 -34 19 -34 -2 0 -13 -2 -15 -8 -5 -5 7
-17 10 -28 7 -13 -4 -12 -2 4 6 12 7 22 18 22 26 0 7 8 13 18 13 13 0 14 -2 3
-9z m134 -32 c11 -16 1 -19 -13 -3 -7 8 -8 14 -3 14 5 0 13 -5 16 -11z m-288
-41 c-3 -7 -5 -2 -5 12 0 14 2 19 5 13 2 -7 2 -19 0 -25z m-20 0 c-3 -8 -6 -5
-6 6 -1 11 2 17 5 13 3 -3 4 -12 1 -19z m140 16 c-3 -3 -12 -4 -19 -1 -8 3 -5
6 6 6 11 1 17 -2 13 -5z m-60 -23 c0 -11 -5 -18 -9 -15 -4 3 -5 11 -1 19 7 21
12 19 10 -4z m135 -24 c-9 -20 -23 -36 -29 -37 -7 0 -13 -6 -13 -12 0 -10 -3
-9 -9 1 -6 10 -11 6 -20 -15 -11 -29 -11 -29 -6 6 3 19 2 29 -1 23 -9 -19 -20
-16 -20 6 0 18 3 18 26 6 31 -16 40 -11 65 32 25 43 29 37 7 -10z m-217 10 c6
-4 1 -7 -10 -5 -11 1 -27 -2 -35 -6 -9 -6 -7 -1 4 12 11 12 22 19 25 15 3 -4
11 -11 16 -16z m162 -19 c-3 -8 -6 -5 -6 6 -1 11 2 17 5 13 3 -3 4 -12 1 -19z
m76 -1 c3 -8 -1 -14 -8 -14 -7 0 -11 6 -8 14 3 7 6 13 8 13 2 0 5 -6 8 -13z
m34 7 c-3 -3 -12 -4 -19 -1 -8 3 -5 6 6 6 11 1 17 -2 13 -5z m46 -9 c-3 -9 -8
-14 -10 -11 -3 3 -2 9 2 15 9 16 15 13 8 -4z m-388 -20 c0 -17 -5 -25 -17 -25
-10 0 -18 5 -18 11 0 5 4 8 9 5 5 -3 11 3 14 14 7 27 12 25 12 -5z m59 -28 c7
-6 6 -7 -4 -4 -8 2 -16 16 -17 33 -1 25 0 26 4 4 3 -14 10 -29 17 -33z m53 21
c-3 -7 -5 -2 -5 12 0 14 2 19 5 13 2 -7 2 -19 0 -25z m-90 -10 c-3 -7 -5 -2
-5 12 0 14 2 19 5 13 2 -7 2 -19 0 -25z m48 12 c3 -5 1 -10 -4 -10 -6 0 -11 5
-11 10 0 6 2 10 4 10 3 0 8 -4 11 -10z m57 -22 c-8 -8 -9 -4 -5 13 4 13 8 18
11 10 2 -7 -1 -18 -6 -23z m42 25 c-5 -5 -12 -12 -16 -18 -4 -6 -8 -2 -8 8 0
9 7 17 17 17 9 0 12 -3 7 -7z m216 -9 c0 -8 -19 -13 -24 -6 -3 5 1 9 9 9 8 0
15 -2 15 -3z m-410 -41 c0 10 8 17 20 17 14 0 18 -5 13 -17 -5 -12 -8 -13 -11
-4 -3 8 -11 2 -23 -16 -16 -24 -19 -25 -20 -8 0 11 -2 31 -4 45 -3 23 -2 22
10 -5 9 -19 14 -24 15 -12z m222 2 c3 -13 1 -22 -3 -19 -9 5 -13 44 -5 44 2 0
6 -11 8 -25z m-42 5 c0 -5 -4 -10 -10 -10 -5 0 -10 5 -10 10 0 6 5 10 10 10 6
0 10 -4 10 -10z m72 -22 c-8 -8 -9 -4 -5 13 4 13 8 18 11 10 2 -7 -1 -18 -6
-23z m-1214 5 c-10 -2 -26 -2 -35 0 -10 3 -2 5 17 5 19 0 27 -2 18 -5z m1036
-14 c15 -18 20 -19 27 -8 7 12 9 11 9 -1 0 -8 -5 -22 -10 -30 -8 -13 -10 -12
-10 3 0 10 -4 15 -10 12 -5 -3 -10 0 -10 7 0 10 -2 10 -9 -1 -5 -7 -7 -23 -5
-35 2 -11 1 -15 -2 -7 -4 8 -9 9 -13 3 -4 -6 -12 -4 -21 6 -13 14 -12 15 3 9
16 -6 25 7 10 16 -5 2 -3 2 4 1 17 -4 26 28 11 38 -7 4 -8 8 -3 8 6 0 19 -10
29 -21z m-951 4 c-7 -2 -21 -2 -30 0 -10 3 -4 5 12 5 17 0 24 -2 18 -5z m806
-10 c1 9 5 17 11 17 5 0 6 -7 3 -17 -4 -10 -2 -14 4 -10 12 7 10 -29 -2 -40
-4 -5 -5 -3 -1 4 3 6 2 14 -4 18 -5 3 -10 0 -11 -7 -1 -17 -18 23 -18 42 0 9
4 8 9 -5 7 -17 9 -17 9 -2z m265 2 c3 -8 1 -15 -4 -15 -6 0 -10 7 -10 15 0 8
2 15 4 15 2 0 6 -7 10 -15z m-286 -50 c0 -16 -2 -15 -8 5 -11 34 -11 60 0 35
5 -11 8 -29 8 -40z m213 18 c-12 -20 -14 -14 -5 12 4 9 9 14 11 11 3 -2 0 -13
-6 -23z m46 -8 c-4 -8 -2 -17 3 -20 6 -4 10 0 11 7 0 10 2 10 6 -1 5 -11 7
-11 14 0 7 11 9 11 9 -2 0 -10 -10 -19 -25 -21 -13 -3 -22 -2 -20 3 3 4 0 9
-6 11 -10 3 -3 38 8 38 3 0 3 -7 0 -15z m86 0 c-3 -9 -8 -14 -10 -11 -3 3 -2
9 2 15 9 16 15 13 8 -4z m-26 -17 c-3 -8 -6 -5 -6 6 -1 11 2 17 5 13 3 -3 4
-12 1 -19z m-340 -30 c-3 -7 -5 -2 -5 12 0 14 2 19 5 13 2 -7 2 -19 0 -25z
m204 23 c7 11 9 10 9 -3 0 -10 -7 -18 -15 -18 -8 0 -15 8 -14 18 0 12 2 13 6
3 5 -11 7 -11 14 0z m49 -2 c0 -5 -5 -7 -12 -3 -8 5 -9 2 -5 -10 4 -10 3 -15
-3 -11 -15 10 -12 35 5 35 8 0 15 -5 15 -11z m-101 -12 c-10 -9 -59 -17 -59
-9 0 4 14 9 32 10 18 2 30 1 27 -1z m141 -22 c-7 -9 -15 -13 -19 -10 -3 3 1
10 9 15 21 14 24 12 10 -5z m-277 -10 c-3 -9 -8 -14 -10 -11 -3 3 -2 9 2 15 9
16 15 13 8 -4z m143 2 c4 -3 -3 -5 -15 -2 -14 2 -21 -1 -21 -11 0 -12 -2 -12
-14 -2 -12 11 -11 14 3 19 19 7 38 6 47 -4z m-175 -6 c7 11 9 11 9 -2 0 -26
-26 -31 -27 -5 0 11 1 15 4 7 5 -11 7 -11 14 0z m261 -19 c4 -25 1 -28 -19
-24 -13 2 -23 -1 -23 -7 0 -5 8 -8 18 -5 14 5 15 4 2 -5 -24 -17 -29 -13 -28
20 1 20 4 26 9 17 6 -9 9 -8 10 7 l0 20 9 -20 c8 -19 9 -19 9 3 1 31 8 28 13
-6z m21 8 c3 -11 1 -18 -4 -14 -5 3 -9 12 -9 20 0 20 7 17 13 -6z m-419 -13
c4 4 4 -1 0 -10 -3 -10 -7 -17 -8 -15 -1 2 -10 14 -21 28 l-20 25 21 -18 c11
-9 24 -14 28 -10z m221 12 c11 -16 1 -19 -13 -3 -7 8 -8 14 -3 14 5 0 13 -5
16 -11z m50 -28 c-6 -5 -25 10 -25 20 0 5 6 4 14 -3 8 -7 12 -15 11 -17z m60
10 c-3 -6 -11 -11 -16 -11 -5 0 -4 6 3 14 14 16 24 13 13 -3z m-135 -11 c-6
-11 -13 -20 -16 -20 -2 0 0 9 6 20 6 11 13 20 16 20 2 0 0 -9 -6 -20z m-222
-15 c-3 -3 -9 2 -12 12 -6 14 -5 15 5 6 7 -7 10 -15 7 -18z m149 -37 c-3 -7
-5 -2 -5 12 0 14 2 19 5 13 2 -7 2 -19 0 -25z m-20 0 c-3 -8 -6 -5 -6 6 -1 11
2 17 5 13 3 -3 4 -12 1 -19z m110 -25 c-3 -10 -5 -4 -5 12 0 17 2 24 5 18 2
-7 2 -21 0 -30z m20 0 c-3 -10 -5 -4 -5 12 0 17 2 24 5 18 2 -7 2 -21 0 -30z
m20 -5 c-3 -8 -6 -5 -6 6 -1 11 2 17 5 13 3 -3 4 -12 1 -19z m-246 -11 c-10
-9 -11 -8 -5 6 3 10 9 15 12 12 3 -3 0 -11 -7 -18z m186 -14 c-3 -10 -5 -4 -5
12 0 17 2 24 5 18 2 -7 2 -21 0 -30z m-20 -5 c-3 -8 -6 -5 -6 6 -1 11 2 17 5
13 3 -3 4 -12 1 -19z m-2342 -1 c5 -1 15 -8 21 -16 6 -8 17 -12 25 -9 8 3 19
-1 26 -7 6 -7 34 -15 62 -19 28 -4 53 -11 56 -16 3 -5 12 -7 19 -4 7 3 27 -10
44 -27 34 -34 40 -49 20 -49 -6 0 -4 -8 6 -19 16 -18 15 -19 -41 -36 -32 -9
-65 -21 -74 -25 -9 -5 -47 -11 -83 -15 -54 -4 -68 -2 -72 10 -4 8 -15 15 -25
15 -24 0 -38 48 -18 61 10 6 11 11 3 17 -6 4 -12 39 -12 80 -1 65 1 73 16 67
9 -4 21 -7 27 -8z m2166 -34 c-4 -28 -6 -32 -9 -15 -3 22 3 52 11 52 1 0 1
-17 -2 -37z m-1716 8 c-3 -6 -11 -11 -16 -11 -5 0 -4 6 3 14 14 16 24 13 13
-3z m1525 -1 c0 -13 -6 -20 -17 -19 -11 0 -13 3 -5 6 6 2 12 11 12 19 0 8 2
14 5 14 3 0 5 -9 5 -20z m207 -22 c-3 -7 -5 -2 -5 12 0 14 2 19 5 13 2 -7 2
-19 0 -25z m20 0 c-3 -7 -5 -2 -5 12 0 14 2 19 5 13 2 -7 2 -19 0 -25z m20
-10 c-3 -7 -5 -2 -5 12 0 14 2 19 5 13 2 -7 2 -19 0 -25z m20 10 c-3 -8 -6 -5
-6 6 -1 11 2 17 5 13 3 -3 4 -12 1 -19z m-1687 -30 c0 -19 -2 -20 -10 -8 -6
10 -10 11 -10 3 0 -7 -4 -13 -9 -13 -5 0 -7 9 -4 20 7 27 33 25 33 -2z m1547
-10 c-3 -8 -6 -5 -6 6 -1 11 2 17 5 13 3 -3 4 -12 1 -19z m-20 -10 c-3 -8 -6
-5 -6 6 -1 11 2 17 5 13 3 -3 4 -12 1 -19z m-80 -20 c-3 -8 -6 -5 -6 6 -1 11
2 17 5 13 3 -3 4 -12 1 -19z m-1532 2 c-3 -5 1 -10 9 -10 9 0 16 5 16 12 0 6
3 8 7 5 3 -4 -2 -16 -12 -27 -13 -14 -14 -20 -5 -20 7 0 10 -3 7 -6 -11 -11
-35 16 -32 34 5 23 4 22 11 22 3 0 2 -4 -1 -10z m1022 -12 c-3 -8 -6 -5 -6 6
-1 11 2 17 5 13 3 -3 4 -12 1 -19z m285 13 c8 11 9 11 6 1 -4 -16 -22 -18 -25
-2 -1 7 0 6 4 -1 4 -8 8 -7 15 2z m145 -23 c-3 -7 -5 -2 -5 12 0 14 2 19 5 13
2 -7 2 -19 0 -25z m20 10 c-3 -8 -6 -5 -6 6 -1 11 2 17 5 13 3 -3 4 -12 1 -19z
m20 0 c-3 -8 -6 -5 -6 6 -1 11 2 17 5 13 3 -3 4 -12 1 -19z m20 0 c-3 -8 -6
-5 -6 6 -1 11 2 17 5 13 3 -3 4 -12 1 -19z m-97 -3 c0 -8 -4 -15 -10 -15 -5 0
-7 7 -4 15 4 8 8 15 10 15 2 0 4 -7 4 -15z m17 -7 c-3 -8 -6 -5 -6 6 -1 11 2
17 5 13 3 -3 4 -12 1 -19z m-1436 -65 c2 1 3 0 1 -2 -6 -11 -39 -6 -39 5 0 9
5 10 17 4 10 -5 19 -8 21 -7z m373 -57 c-3 -9 -12 -12 -22 -9 -15 6 -9 11 25
22 1 1 0 -5 -3 -13z m61 -44 c-3 -3 -11 0 -18 7 -9 10 -8 11 6 5 10 -3 15 -9
12 -12z m154 -1 c8 -5 9 -11 3 -15 -6 -3 -13 -2 -17 4 -3 5 -12 10 -18 10 -7
0 -6 -4 3 -10 8 -5 11 -12 7 -17 -9 -9 -28 17 -21 29 7 10 25 10 43 -1z m48
-17 c-3 -3 -12 -4 -19 -1 -8 3 -5 6 6 6 11 1 17 -2 13 -5z m896 -341 c-7 -2
-21 -2 -30 0 -10 3 -4 5 12 5 17 0 24 -2 18 -5z m-105 -10 c-10 -2 -28 -2 -40
0 -13 2 -5 4 17 4 22 1 32 -1 23 -4z m-2525 -748 c58 -9 118 -38 185 -89 l61
-47 -59 -54 c-33 -30 -62 -55 -65 -55 -2 0 -33 15 -67 32 -56 29 -72 33 -145
33 -78 0 -83 -1 -139 -40 -74 -52 -97 -94 -98 -185 0 -57 5 -78 30 -127 50
-98 165 -150 272 -124 53 14 112 49 112 69 0 24 26 10 89 -49 l64 -61 -29 -23
c-134 -108 -270 -146 -399 -111 -165 44 -301 194 -320 354 -14 122 35 261 127
358 64 68 115 99 188 113 30 6 64 13 75 15 21 4 52 1 118 -9z m1542 -20 c45
-55 362 -724 367 -776 3 -20 -3 -24 -37 -31 -22 -4 -66 -5 -97 -2 l-57 6 -24
71 -24 72 -182 3 c-168 2 -183 1 -187 -15 -3 -10 -15 -43 -27 -73 l-22 -55
-88 -3 c-93 -3 -102 2 -72 45 8 11 27 54 41 94 14 41 37 94 50 119 44 85 151
325 167 375 9 28 32 85 52 129 l37 78 41 -6 c27 -4 49 -15 62 -31z m1470 21
c74 -16 133 -46 186 -93 l40 -36 -28 -17 c-15 -10 -45 -34 -65 -54 l-37 -36
-36 24 c-21 15 -30 26 -23 29 7 2 2 5 -12 6 -14 0 -56 3 -95 7 -64 5 -75 3
-125 -23 -133 -70 -177 -251 -90 -372 32 -43 78 -72 149 -91 36 -9 57 -9 116
5 72 16 73 16 79 53 3 20 6 49 6 65 l0 27 -81 0 c-79 0 -81 1 -75 23 3 12 6
43 6 70 l0 48 158 -3 157 -3 3 -182 2 -181 -47 -27 c-181 -101 -308 -109 -476
-30 -197 94 -271 315 -181 539 32 82 130 193 198 226 81 39 172 48 271 26z
m710 -4 l240 3 0 -85 0 -85 -213 -3 -213 -2 3 -78 3 -77 190 -5 190 -5 3 -71
3 -71 -32 -7 c-17 -3 -105 -6 -196 -6 l-164 0 3 -77 3 -78 205 -3 c113 -1 211
-4 218 -7 8 -3 12 -28 12 -78 l0 -74 -37 -7 c-35 -5 -563 -9 -563 -3 -1 1 -3
178 -6 392 -4 254 -2 399 4 416 10 26 12 26 59 17 26 -5 156 -8 288 -6z m477
8 c49 -14 88 -59 363 -419 38 -50 72 -91 75 -91 3 0 1 78 -4 174 -4 97 -4 211
0 257 l9 82 75 -2 c41 -1 77 -5 80 -8 4 -4 18 -803 13 -811 0 -2 -34 -6 -75
-9 l-73 -5 -80 108 c-141 192 -265 358 -290 389 l-24 30 6 -256 6 -256 -39 -6
c-53 -9 -116 -8 -131 1 -10 6 -11 101 -6 420 l6 412 26 0 c14 0 43 -5 63 -10z
m902 -21 c50 -59 22 -141 -51 -155 -32 -6 -40 -3 -65 25 -39 43 -38 85 4 128
42 43 77 44 112 2z m-4590 -1 c3 -13 6 -89 6 -170 l0 -148 160 0 160 0 0 171
0 170 90 -2 90 -3 -2 -410 -3 -411 -85 0 -85 0 -1 160 -2 160 -172 3 c-94 1
-169 -1 -167 -5 3 -5 7 -77 8 -162 l4 -155 -30 -8 c-17 -5 -56 -6 -87 -2 l-58
6 0 414 0 414 84 0 c78 0 84 -1 90 -22z m1980 -18 c8 -51 7 -103 -3 -119 -7
-11 -38 -15 -123 -18 l-113 -3 2 -320 c1 -176 1 -320 0 -320 -51 -9 -88 -11
-123 -5 l-44 6 0 322 0 322 -113 0 -112 0 -3 85 -3 85 315 0 314 1 6 -36z"/>
<path d="M4955 7925 c-182 -29 -422 -103 -527 -162 -74 -41 -69 -40 83 21 64
25 127 47 140 48 13 2 26 6 29 9 3 3 32 13 65 23 170 50 320 69 500 62 179 -6
185 -7 185 -16 0 -5 33 -8 73 -8 107 1 420 -89 509 -146 13 -8 41 -19 63 -25
39 -10 74 -31 179 -105 61 -44 75 -37 21 10 -39 33 -149 91 -322 168 -87 40
-301 97 -448 121 -112 19 -437 18 -550 0z"/>
<path d="M4288 7694 c-38 -19 -68 -37 -68 -39 0 -3 32 11 70 30 39 19 70 37
70 40 0 7 3 8 -72 -31z"/>
<path d="M4093 7565 c-44 -30 -89 -65 -99 -77 -14 -16 -9 -15 15 5 19 16 59
41 91 57 54 27 88 55 78 65 -2 3 -41 -20 -85 -50z"/>
<path d="M3829 7303 c-13 -16 -12 -17 4 -4 9 7 17 15 17 17 0 8 -8 3 -21 -13z"/>
<path d="M3206 6845 c-9 -26 -7 -32 5 -12 6 10 9 21 6 23 -2 3 -7 -2 -11 -11z"/>
<path d="M3228 5983 c6 -2 18 -2 25 0 6 3 1 5 -13 5 -14 0 -19 -2 -12 -5z"/>
<path d="M3277 5973 c-13 -13 -7 -33 11 -33 13 0 14 2 3 9 -7 5 -10 14 -7 20
8 12 3 15 -7 4z"/>
<path d="M6882 4683 c-24 -24 -24 -25 -2 -8 42 33 44 35 37 35 -4 0 -19 -12
-35 -27z"/>
<path d="M4143 4424 c-7 -3 -9 -12 -6 -20 8 -21 22 -17 20 6 -1 11 -1 20 -2
19 0 0 -5 -3 -12 -5z"/>
<path d="M4360 4315 c0 -8 4 -15 10 -15 5 0 7 7 4 15 -4 8 -8 15 -10 15 -2 0
-4 -7 -4 -15z"/>
<path d="M4130 4309 c11 -8 12 -12 2 -16 -6 -2 -10 -9 -6 -14 3 -5 12 -2 21 7
14 13 14 17 2 25 -20 12 -37 11 -19 -2z"/>
<path d="M4056 4268 c3 -4 9 -8 15 -8 5 0 9 4 9 8 0 5 -7 9 -15 9 -8 0 -12 -4
-9 -9z"/>
<path d="M4716 4202 c-3 -4 4 -9 15 -9 23 -2 25 3 4 10 -8 4 -16 3 -19 -1z"/>
<path d="M4515 4190 c3 -5 8 -10 11 -10 2 0 4 5 4 10 0 6 -5 10 -11 10 -5 0
-7 -4 -4 -10z"/>
<path d="M5558 4183 c6 -2 18 -2 25 0 6 3 1 5 -13 5 -14 0 -19 -2 -12 -5z"/>
<path d="M5508 4173 c6 -2 18 -2 25 0 6 3 1 5 -13 5 -14 0 -19 -2 -12 -5z"/>
<path d="M5458 4163 c7 -3 16 -2 19 1 4 3 -2 6 -13 5 -11 0 -14 -3 -6 -6z"/>
<path d="M5083 4153 c15 -2 39 -2 55 0 15 2 2 4 -28 4 -30 0 -43 -2 -27 -4z"/>
<path d="M5368 4153 c12 -2 30 -2 40 0 9 3 -1 5 -23 4 -22 0 -30 -2 -17 -4z"/>
<path d="M5223 4143 c15 -2 39 -2 55 0 15 2 2 4 -28 4 -30 0 -43 -2 -27 -4z"/>
<path d="M4498 4063 c7 -3 16 -2 19 1 4 3 -2 6 -13 5 -11 0 -14 -3 -6 -6z"/>
<path d="M6930 7851 c0 -7 20 -33 44 -59 l45 -47 75 0 c41 0 80 5 85 10 7 7
-2 9 -29 7 -52 -5 -78 2 -124 33 -21 14 -35 21 -31 15 14 -22 -10 -8 -37 22
-15 17 -28 26 -28 19z m115 -89 c-6 -7 -45 19 -45 29 0 5 11 2 24 -8 13 -10
23 -19 21 -21z"/>
<path d="M6770 7140 c7 -13 19 -31 27 -38 87 -87 221 -356 258 -517 5 -22 34
-79 35 -68 1 49 -62 238 -117 348 -50 100 -124 212 -169 256 -33 32 -43 37
-34 19z"/>
<path d="M7092 6485 c2 -13 12 -21 28 -22 14 -1 18 0 10 3 -8 4 -21 14 -28 23
-13 14 -13 14 -10 -4z"/>
<path d="M7163 6453 c9 -2 23 -2 30 0 6 3 -1 5 -18 5 -16 0 -22 -2 -12 -5z"/>
<path d="M7355 6450 c-3 -5 -1 -10 4 -10 6 0 11 5 11 10 0 6 -2 10 -4 10 -3 0
-8 -4 -11 -10z"/>
<path d="M7268 6443 c12 -2 32 -2 45 0 12 2 2 4 -23 4 -25 0 -35 -2 -22 -4z"/>
<path d="M6041 6446 c2 -2 72 -7 154 -11 106 -4 146 -3 135 4 -14 10 -299 16
-289 7z"/>
<path d="M4033 6050 c0 -41 2 -58 4 -37 2 20 2 54 0 75 -2 20 -4 3 -4 -38z"/>
<path d="M4630 5458 c41 -45 50 -53 50 -45 0 2 -21 23 -47 47 l-48 45 45 -47z"/>
<path d="M4747 5349 c12 -15 73 -53 73 -46 0 2 -19 17 -42 32 -24 16 -38 22
-31 14z"/>
<path d="M5028 5213 c7 -3 16 -2 19 1 4 3 -2 6 -13 5 -11 0 -14 -3 -6 -6z"/>
<path d="M6054 5188 l-19 -23 23 19 c21 18 27 26 19 26 -2 0 -12 -10 -23 -22z"/>
<path d="M6428 7233 c6 -2 18 -2 25 0 6 3 1 5 -13 5 -14 0 -19 -2 -12 -5z"/>
<path d="M6280 7150 c-12 -8 -12 -10 -1 -10 11 0 11 -3 1 -15 -7 -8 -9 -15 -4
-15 5 0 -6 -9 -23 -20 -18 -11 -33 -23 -33 -26 0 -4 7 -1 15 6 8 6 20 8 26 4
8 -4 9 -3 5 4 -4 7 -1 12 9 12 9 0 13 -4 10 -10 -10 -16 5 -12 23 7 16 16 16
16 0 10 -21 -7 -24 13 -8 44 12 21 4 24 -20 9z"/>
<path d="M6251 7203 c-10 -26 -10 -27 4 -9 8 11 15 23 15 28 0 15 -7 8 -19
-19z"/>
<path d="M2782 5820 c0 -14 2 -19 5 -12 2 6 2 18 0 25 -3 6 -5 1 -5 -13z"/>
<path d="M2781 5778 c0 -7 4 -22 9 -33 8 -18 9 -17 9 7 1 15 -3 30 -9 33 -5 3
-10 0 -9 -7z"/>
<path d="M6540 6082 c0 -46 76 -136 126 -148 33 -8 113 1 126 14 7 7 -2 7 -31
0 -82 -21 -157 18 -200 105 -12 23 -21 36 -21 29z"/>
<path d="M6819 5973 c-13 -16 -12 -17 4 -4 9 7 17 15 17 17 0 8 -8 3 -21 -13z"/>
<path d="M5067 6124 c-9 -25 25 -125 48 -144 8 -7 12 -16 9 -21 -3 -5 -2 -8 3
-7 4 1 22 -6 40 -15 19 -10 52 -17 80 -16 l48 1 -49 9 c-83 14 -149 81 -164
171 -7 35 -10 39 -15 22z"/>
<path d="M2680 2496 c0 -2 8 -10 18 -17 15 -13 16 -12 3 4 -13 16 -21 21 -21
13z"/>
<path d="M3030 2470 c-9 -6 -10 -10 -3 -10 6 0 15 5 18 10 8 12 4 12 -15 0z"/>
<path d="M2734 2456 c11 -9 24 -16 30 -16 12 0 7 5 -24 19 -24 11 -24 11 -6
-3z"/>
<path d="M4447 2858 c-3 -7 -28 -66 -56 -131 -28 -65 -51 -119 -51 -120 0 -1
49 -2 110 -2 129 0 129 0 82 100 -16 33 -37 84 -46 113 -17 52 -29 64 -39 40z"/>
<path d="M7957 3082 c-10 -10 -17 -27 -17 -38 0 -29 28 -64 51 -64 23 0 79 51
79 72 0 43 -82 64 -113 30z m60 -24 c23 -30 21 -44 -6 -43 -21 0 -27 5 -29 28
-4 29 17 38 35 15z"/>
</g>
</svg>
